<svg xmlns="http://www.w3.org/2000/svg" viewBox="0 0 550.13 550.13"><defs><style>.cls-1{fill:#fff;}.cls-2{fill:#42d4fc;}.cls-2,.cls-3{fill-rule:evenodd;}.cls-3{fill:#222;}</style></defs><title>Element 3</title><g id="Ebene_2" data-name="Ebene 2"><g id="Ebene_2-2" data-name="Ebene 2"><circle class="cls-1" cx="275.06" cy="275.06" r="275.06"/><path class="cls-2" d="M232.88,386.3c-5.3-35.2,36.42-39.3,83.68-28.51,52.53,12,108.24-8.24,125-68.9-23.6,53.37-76.93,55.17-124.6,49.63-51.89-6-110.17-.77-84,47.78"/><path class="cls-2" d="M258.09,398.93c14.64-17.71,29.89-10.12,59.71-3.53C356.64,404,397.86,399,415.51,356c-22,37-60.61,30-95.72,25.33-38-5.06-58-6.68-61.69,17.61"/><path class="cls-3" d="M190.11,388.15c-87.18-28.31-45.73-122.57,47.39-123.84,45.36-.61,90.84,3,134.33-13.49C478.14,210.39,437,113.66,384.66,88.65,427.3,116,457,195.61,365.55,230.4c-20.39,7.75-45.18,9.68-70.44,9.21-49.33-.92-102.25-18.44-149.87.48-64,25.41-84.34,108.44-21.32,147.5,13.3,8.24,26.11,12.11,44,18.16,45.61,12.55,39,51.69.43,55.54,83.24,4.12,53.87-62.56,21.71-73.14"/><path class="cls-2" d="M233.19,292.13c-43.57,11.6-61,48.23-28.06,80.82-12.38-23.8-7-48.24,21.43-55.82,43-11.46,79.17,4.41,118.17,1.24,49.52-4,104.4-33.07,119.7-97.67-19.2,48.06-59.77,66.07-110.26,70.18-39,3.18-77.93-10.22-121,1.25"/></g></g></svg>